<?xml version="1.0" standalone="no"?>
<!DOCTYPE svg PUBLIC "-//W3C//DTD SVG 20010904//EN"
 "http://www.w3.org/TR/2001/REC-SVG-20010904/DTD/svg10.dtd">
<svg version="1.0" xmlns="http://www.w3.org/2000/svg"
 width="250" height="150" viewBox="0 0 1654.000000 2339.000000"
 preserveAspectRatio="xMidYMid meet">

<g transform="translate(0.000000,2339.000000) scale(0.100000,-0.100000)"
fill="#000000" stroke="none">
<path d="M9253 16817 c-3 -4 3 -40 12 -80 30 -125 156 -298 215 -295 79 3 280
83 280 111 -1 57 -114 152 -263 221 -77 36 -107 44 -166 48 -40 2 -75 0 -78
-5z"/>
<path d="M8359 16457 c-46 -42 -112 -206 -135 -338 -16 -90 -16 -97 1 -122 15
-23 22 -26 61 -22 65 6 141 30 207 65 l57 32 0 81 c-1 110 -19 188 -65 270
-32 58 -39 66 -53 55 -12 -10 -16 -10 -19 0 -7 18 -14 15 -54 -21z"/>
<path d="M9665 16250 c-96 -17 -171 -77 -212 -169 -32 -72 -33 -184 -4 -403
97 -721 265 -1136 589 -1451 105 -101 161 -127 294 -137 155 -10 266 12 378
77 204 119 370 438 371 712 0 193 -33 283 -216 591 -51 85 -119 189 -150 230
-111 145 -306 328 -430 402 -126 75 -311 136 -440 144 -44 3 -93 6 -110 8 -16
1 -48 -1 -70 -4z"/>
<path d="M8602 15839 c-77 -10 -155 -61 -230 -149 -188 -223 -272 -472 -272
-802 0 -162 17 -293 65 -509 63 -286 101 -382 199 -501 192 -233 487 -346 792
-306 131 18 270 90 354 185 94 107 114 187 107 423 -10 286 -58 464 -206 765
-147 296 -438 734 -547 821 -81 65 -157 86 -262 73z"/>
<path d="M11344 15653 c9 -85 33 -207 54 -265 15 -45 18 -48 51 -48 40 0 176
23 243 40 27 7 59 27 85 52 l42 41 -41 48 c-31 37 -69 64 -152 108 -104 55
-138 66 -260 84 l-29 5 7 -65z"/>
<path d="M11698 15243 c-57 -20 -135 -77 -165 -122 -79 -117 -117 -406 -117
-881 0 -290 14 -431 61 -614 74 -293 224 -569 357 -661 91 -62 171 -85 320
-92 115 -5 141 -3 209 16 96 26 166 61 232 114 167 136 308 346 355 530 32
128 35 235 10 356 -29 143 -121 432 -181 571 -172 395 -430 651 -774 765 -102
34 -238 42 -307 18z"/>
<path d="M7567 14207 c-20 -29 -55 -104 -77 -166 -32 -90 -40 -126 -40 -181 0
-60 3 -70 18 -71 9 -1 34 -2 55 -3 43 -3 88 18 204 93 40 25 73 53 73 61 0 33
-171 320 -191 320 -3 0 -22 -24 -42 -53z"/>
<path d="M7749 13679 c-111 -16 -195 -92 -273 -248 -134 -266 -157 -591 -65
-916 46 -159 192 -497 282 -651 153 -261 474 -417 822 -400 231 11 396 90 520
247 118 150 133 294 58 549 -53 179 -129 347 -230 505 -178 277 -683 781 -885
882 -58 29 -154 42 -229 32z"/>
<path d="M10350 13600 c-215 -28 -452 -148 -610 -310 -130 -132 -181 -240
-234 -493 -20 -94 -56 -221 -85 -303 -28 -78 -73 -212 -100 -298 -71 -225
-136 -373 -288 -651 -108 -200 -244 -529 -280 -678 -26 -105 -23 -306 6 -412
78 -291 332 -602 606 -743 245 -126 518 -152 775 -75 266 80 481 253 617 494
25 44 43 82 41 84 -2 3 -21 -26 -42 -62 -170 -296 -469 -478 -816 -499 l-108
-7 -31 34 c-46 50 -122 182 -164 284 -59 144 -79 253 -84 460 -7 262 17 380
144 720 147 393 352 772 618 1145 198 277 303 358 550 422 106 27 137 31 265
32 206 1 253 -11 590 -158 96 -42 187 -89 203 -103 30 -30 41 -61 56 -175 16
-115 54 -169 163 -226 89 -47 267 -80 442 -82 5 0 0 -10 -11 -22 -51 -57 -61
-136 -22 -192 28 -41 73 -70 100 -63 10 3 19 3 19 0 0 -2 -15 -37 -34 -77 -74
-162 -176 -222 -476 -282 -147 -30 -208 -36 -380 -44 -169 -6 -216 -12 -270
-30 -150 -50 -259 -147 -326 -291 -45 -97 -53 -147 -57 -355 -3 -167 -7 -209
-25 -262 l-20 -62 31 18 c248 149 428 230 616 276 141 35 252 47 476 51 110 2
232 8 270 15 144 23 318 93 438 177 310 216 492 665 421 1041 -48 257 -187
460 -410 600 -120 75 -294 126 -604 177 -118 19 -259 47 -313 61 -302 78 -540
215 -746 428 -238 246 -268 273 -340 316 -40 24 -110 56 -155 71 -53 18 -72
28 -56 29 15 1 0 8 -35 16 -63 14 -233 16 -325 4z m2366 -1727 c4 -21 0 -50
-10 -77 l-17 -44 -44 43 c-57 56 -64 84 -36 143 l22 45 39 -38 c24 -24 42 -52
46 -72z"/>
<path d="M10835 12615 c-32 -14 -75 -48 -120 -94 -38 -40 -104 -99 -145 -131
-82 -64 -138 -130 -172 -206 -18 -38 -23 -67 -23 -134 0 -74 4 -93 29 -145 48
-98 160 -204 200 -189 29 11 27 37 -9 95 -35 58 -43 92 -25 119 15 24 40 2 95
-84 87 -136 139 -199 231 -279 114 -101 154 -126 208 -133 58 -8 107 9 186 64
155 109 219 225 207 377 -6 81 -11 95 -90 234 -67 116 -129 274 -147 371 -14
73 -22 87 -38 67 -29 -35 -15 -182 30 -302 12 -33 48 -110 79 -171 66 -127 79
-192 59 -283 -17 -77 -43 -125 -102 -187 -56 -60 -100 -79 -164 -71 -62 7
-103 38 -226 174 -58 65 -147 157 -196 206 -78 76 -94 87 -124 87 -20 0 -46
-9 -61 -20 -14 -11 -28 -20 -31 -20 -3 0 -6 50 -6 110 0 149 7 161 170 299
165 138 278 257 252 263 -10 3 -40 -5 -67 -17z"/>
<path d="M11779 12262 c-68 -68 -68 -97 2 -152 28 -22 59 -40 69 -40 18 0 49
24 51 38 0 4 2 15 4 25 2 10 0 31 -5 45 -5 15 -14 46 -20 69 -6 25 -19 47 -31
54 -18 9 -27 4 -70 -39z"/>
<path d="M10836 10335 c-9 -26 -7 -32 5 -12 6 10 9 21 6 23 -2 3 -7 -2 -11
-11z"/>
<path d="M10806 10255 c-9 -26 -7 -32 5 -12 6 10 9 21 6 23 -2 3 -7 -2 -11
-11z"/>
</g>
</svg>
