<svg xmlns="http://www.w3.org/2000/svg" width="250" height="250" viewBox="0 0 1654 2339" version="1.1"><path d="M 924.760 656.573 C 924.445 656.889, 925.173 660.839, 926.378 665.352 C 928.781 674.352, 933.037 681.911, 940.165 689.839 C 943.999 694.103, 945.388 695, 948.156 695 C 953.253 695, 964.364 691.511, 970.565 687.963 C 975.619 685.071, 976.084 684.514, 975.806 681.683 C 975.374 677.294, 965.569 669.567, 950.826 661.995 C 939.878 656.373, 938.721 656, 932.242 656 C 928.442 656, 925.075 656.258, 924.760 656.573 M 835.697 693.250 C 830.930 697.511, 824.559 713.502, 822.259 726.984 C 820.692 736.168, 820.695 736.886, 822.321 739.367 C 823.567 741.268, 824.902 742, 827.129 742 C 832.094 742, 841.818 739.117, 848.928 735.536 L 855.530 732.212 855.747 726.856 C 856.109 717.955, 853.107 704.384, 849.267 697.562 C 844.939 689.872, 844.444 689.387, 842.542 690.965 C 841.496 691.834, 841 691.884, 841 691.122 C 841 689.245, 839.508 689.844, 835.697 693.250 M 966 713.954 C 960.037 715.188, 955.334 717.666, 951.304 721.696 C 940.417 732.583, 939.909 746.542, 948.600 796 C 957.099 844.355, 970.759 878.380, 991.848 903.722 C 998.085 911.216, 1009.023 921.705, 1014.121 925.080 C 1027.096 933.670, 1055.350 932.365, 1071.088 922.450 C 1082.903 915.006, 1093.284 902.472, 1100.119 887.399 C 1108.586 868.725, 1110.758 845.440, 1105.547 829.205 C 1101.507 816.617, 1084.840 786.614, 1073.214 771 C 1057.813 750.316, 1039.828 734.194, 1022.500 725.540 C 1002.932 715.768, 979.980 711.061, 966 713.954 M 858.707 755.052 C 853.042 755.991, 846.085 760.230, 840.414 766.199 C 826.842 780.483, 818.568 795.932, 813.593 816.273 C 811.161 826.219, 810.693 829.464, 809.471 844.887 C 808.345 859.085, 812.353 886.345, 820.054 916.869 C 824.894 936.052, 831.498 947.664, 844.441 959.752 C 860.573 974.817, 882.067 983, 905.507 983 C 930.319 983, 954.148 967.533, 960.185 947.509 C 962.226 940.738, 962.953 927.286, 961.968 914.500 C 960.021 889.235, 954.030 868.978, 940.560 842.120 C 927.138 815.356, 898.713 773.079, 887.512 763.219 C 879.119 755.831, 869.854 753.204, 858.707 755.052 M 1133.353 768.756 C 1133.619 769.715, 1134.138 773.200, 1134.506 776.500 C 1135.296 783.572, 1137.451 793.546, 1139.668 800.388 L 1141.252 805.276 1149.376 804.638 C 1153.844 804.287, 1161.325 803.080, 1166 801.956 C 1172.994 800.275, 1175.164 799.265, 1178.250 796.254 C 1180.313 794.241, 1182 792.284, 1182 791.905 C 1182 791.526, 1179.905 788.886, 1177.345 786.039 C 1173.786 782.080, 1170.184 779.605, 1162.047 775.523 C 1150.520 769.742, 1146.130 768.274, 1138.087 767.508 C 1133.478 767.069, 1132.925 767.215, 1133.353 768.756 M 1168.357 815.082 C 1154.283 820.495, 1147.630 832.069, 1144.559 856.487 C 1139.033 900.415, 1140.212 948.024, 1147.547 977.131 C 1153.161 999.406, 1165.436 1024.621, 1176.777 1037.175 C 1180.919 1041.759, 1189.642 1047.149, 1196.500 1049.361 C 1203.044 1051.471, 1220.875 1052.932, 1228.616 1051.992 C 1246.430 1049.829, 1261.366 1040.348, 1276.184 1021.797 C 1287.906 1007.121, 1293.170 996.277, 1296.536 979.872 C 1299.962 963.174, 1297.852 949.861, 1286.139 914.272 C 1274.138 877.810, 1258.456 853.377, 1235 834.599 C 1213.136 817.095, 1184.744 808.780, 1168.357 815.082 M 756.555 918.057 C 754.503 920.913, 751.202 927.984, 748.970 934.307 C 745.676 943.634, 745.016 946.792, 745.009 953.250 L 745 961 750.540 961 C 756.823 961, 760.192 959.544, 772.730 951.410 L 780.959 946.071 778.911 941.293 C 775.677 933.748, 762.522 913, 760.972 913 C 760.541 913, 758.553 915.275, 756.555 918.057 M 772.423 971.340 C 758.299 974.945, 747.158 990.171, 739.625 1016.164 C 732.658 1040.208, 733.988 1067.061, 743.570 1095.756 C 748.127 1109.403, 759.224 1134.369, 767.397 1149.363 C 778.041 1168.890, 797.371 1183.472, 821.500 1190.177 C 828.346 1192.080, 832.025 1192.404, 847 1192.423 C 862.761 1192.443, 865.196 1192.211, 871.500 1190.091 C 882.028 1186.552, 890.693 1181.318, 898.068 1174.042 C 909.531 1162.733, 914 1153.043, 914 1139.499 C 914 1113.176, 896.223 1072.017, 872.538 1043.500 C 856.390 1024.058, 829.035 997.024, 811 982.685 C 797.365 971.843, 784.860 968.166, 772.423 971.340 M 1033.500 978.955 C 1007.922 982.398, 978.055 1000.611, 964.466 1021.051 C 957.979 1030.809, 954.402 1040.298, 950.952 1056.908 C 947.719 1072.472, 928.427 1132.020, 921.147 1148.905 C 918.988 1153.914, 912.719 1166.447, 907.218 1176.756 C 895.506 1198.703, 888.842 1213.182, 881.564 1232.500 C 874.247 1251.919, 872.533 1260.899, 873.308 1275.736 C 874.624 1300.901, 884.657 1322.131, 905.489 1343.835 C 924.715 1363.866, 943.525 1374.368, 967.500 1378.458 C 1010.385 1385.774, 1054.843 1364.196, 1075.869 1325.862 C 1080.211 1317.944, 1086.015 1303.228, 1085.980 1300.221 C 1085.969 1299.275, 1084.635 1302.260, 1083.014 1306.856 C 1069.333 1345.650, 1033.054 1372.469, 993.147 1373.288 L 982.793 1373.500 979.513 1369.718 C 970.852 1359.733, 961.556 1339.604, 957.937 1323 C 954.880 1308.975, 954.557 1280.496, 957.290 1266.018 C 963.422 1233.535, 987.305 1178.680, 1013.434 1137.064 C 1022.449 1122.706, 1040.328 1097.721, 1046.644 1090.656 C 1054.905 1081.415, 1064.807 1074.871, 1076.201 1071.124 C 1090.971 1066.266, 1100.025 1064.737, 1114 1064.740 C 1132.626 1064.743, 1139.086 1066.406, 1165.500 1077.994 C 1172.650 1081.130, 1180.585 1084.481, 1183.133 1085.439 C 1192.780 1089.069, 1197 1095.101, 1197 1105.261 C 1197 1107.118, 1197.709 1111.024, 1198.575 1113.942 C 1202.816 1128.221, 1219.965 1136.868, 1247.392 1138.557 L 1259.107 1139.278 1256.613 1141.889 C 1255.241 1143.325, 1253.567 1146.567, 1252.894 1149.093 C 1251.784 1153.255, 1251.880 1154.121, 1253.920 1158.336 C 1256.600 1163.871, 1261.075 1167.410, 1264.554 1166.745 C 1265.899 1166.488, 1267 1166.450, 1267 1166.661 C 1267 1166.872, 1265.216 1170.522, 1263.035 1174.772 C 1254.529 1191.348, 1246.583 1196.175, 1218.415 1201.881 C 1200.049 1205.600, 1187.621 1206.989, 1172.289 1207.036 C 1165.805 1207.055, 1158.025 1207.672, 1155 1208.407 C 1136.459 1212.911, 1120.735 1228.202, 1114.800 1247.500 C 1112.994 1253.372, 1112.610 1257.354, 1112.418 1272.210 C 1112.179 1290.727, 1111.656 1295.889, 1109.361 1302.393 C 1108.601 1304.548, 1108.148 1306.481, 1108.354 1306.687 C 1108.560 1306.894, 1112.212 1305.003, 1116.468 1302.487 C 1128.020 1295.657, 1146.965 1286.358, 1156.271 1282.950 C 1176.187 1275.655, 1192.163 1273.083, 1218 1273.014 C 1238.666 1272.958, 1250.238 1271.533, 1263 1267.470 C 1304.541 1254.245, 1332.579 1216.678, 1334.719 1171.378 C 1336.025 1143.740, 1327.602 1120.757, 1309.477 1102.505 C 1292.309 1085.216, 1273.488 1077.708, 1230.500 1070.999 C 1191.116 1064.852, 1167.187 1055.762, 1143.500 1037.949 C 1134.370 1031.083, 1126.130 1023.113, 1112.848 1008.300 C 1108.804 1003.790, 1103.021 998.239, 1099.997 995.964 C 1093.918 991.390, 1082.711 985.427, 1076.512 983.467 C 1073.150 982.403, 1072.905 982.163, 1075 981.984 C 1076.524 981.854, 1074.768 981.067, 1070.500 979.967 C 1063.213 978.089, 1043.862 977.560, 1033.500 978.955 M 1082.377 1077.970 C 1078.503 1079.905, 1074.750 1082.890, 1071.597 1086.541 C 1068.937 1089.622, 1062.877 1095.210, 1058.130 1098.958 C 1048.528 1106.540, 1044.626 1110.954, 1040.381 1119.035 C 1037.806 1123.936, 1037.509 1125.480, 1037.505 1134 C 1037.500 1142.916, 1037.710 1143.886, 1040.906 1149.781 C 1044.615 1156.622, 1055.862 1168, 1058.914 1168 C 1059.927 1168, 1061.355 1167.277, 1062.089 1166.393 C 1063.229 1165.019, 1062.884 1163.803, 1059.711 1158 C 1055.681 1150.632, 1055.182 1147.923, 1057.500 1146 C 1059.667 1144.202, 1061.021 1145.625, 1068.278 1157.319 C 1075.693 1169.270, 1081.159 1175.457, 1093.307 1185.649 C 1103.369 1194.091, 1107 1196, 1113 1196 C 1118.546 1196, 1123.115 1193.908, 1131.726 1187.427 C 1144.406 1177.883, 1150 1167.831, 1150 1154.588 C 1150 1145.623, 1148.803 1142.095, 1141.079 1128.293 C 1133.558 1114.856, 1128.665 1102.826, 1126.546 1092.571 C 1124.630 1083.293, 1124.267 1082.534, 1122.460 1084.033 C 1120.036 1086.045, 1119.625 1093.602, 1121.473 1102.157 C 1123.538 1111.715, 1126.565 1119.414, 1133.008 1131.500 C 1138.952 1142.650, 1140.232 1148.292, 1138.921 1157.568 C 1137.792 1165.565, 1134.360 1172.858, 1129.149 1178.335 C 1122.057 1185.788, 1115.168 1187.632, 1107.500 1184.129 C 1102.639 1181.908, 1101.609 1180.919, 1081.541 1159.216 C 1072.764 1149.723, 1064.567 1141.291, 1063.326 1140.478 C 1060 1138.299, 1053.693 1138.577, 1051.500 1141 C 1050.505 1142.100, 1049.310 1143, 1048.845 1143 C 1048.380 1143, 1048.010 1138.162, 1048.022 1132.250 C 1048.053 1116.979, 1048.635 1115.972, 1065.612 1101.820 C 1081.608 1088.486, 1092.889 1076.555, 1090.404 1075.601 C 1088.365 1074.819, 1089.138 1074.591, 1082.377 1077.970 M 1177.857 1112.857 C 1171.266 1119.448, 1171.246 1122.341, 1177.750 1127.916 C 1183.459 1132.809, 1187.128 1133.261, 1189.668 1129.383 C 1191.291 1126.908, 1191.286 1126.383, 1189.587 1119.633 C 1187.681 1112.063, 1185.672 1108, 1183.834 1108 C 1183.218 1108, 1180.529 1110.186, 1177.857 1112.857 M 1261.261 1145.607 C 1258.685 1151.558, 1259.539 1155.009, 1264.712 1159.541 L 1268.500 1162.860 1270.224 1159.180 C 1271.172 1157.156, 1271.959 1154.690, 1271.974 1153.700 C 1272.012 1151.091, 1269.615 1146.915, 1266.237 1143.704 L 1263.295 1140.908 1261.261 1145.607" stroke="none" fill="#83441c" fill-rule="evenodd"/><path d="M 0 1169.501 L 0 2339.001 827.250 2338.751 L 1654.500 2338.500 1654.750 1169.250 L 1655.001 -0 827.500 -0 L 0 0 0 1169.501 M 0.498 1170 C 0.498 1813.225, 0.612 2076.362, 0.750 1754.750 C 0.888 1433.137, 0.888 906.862, 0.750 585.250 C 0.612 263.637, 0.498 526.775, 0.498 1170 M 924.760 656.573 C 924.445 656.889, 925.173 660.839, 926.378 665.352 C 928.781 674.352, 933.037 681.911, 940.165 689.839 C 943.999 694.103, 945.388 695, 948.156 695 C 953.253 695, 964.364 691.511, 970.565 687.963 C 975.619 685.071, 976.084 684.514, 975.806 681.683 C 975.374 677.294, 965.569 669.567, 950.826 661.995 C 939.878 656.373, 938.721 656, 932.242 656 C 928.442 656, 925.075 656.258, 924.760 656.573 M 835.697 693.250 C 830.930 697.511, 824.559 713.502, 822.259 726.984 C 820.692 736.168, 820.695 736.886, 822.321 739.367 C 823.567 741.268, 824.902 742, 827.129 742 C 832.094 742, 841.818 739.117, 848.928 735.536 L 855.530 732.212 855.747 726.856 C 856.109 717.955, 853.107 704.384, 849.267 697.562 C 844.939 689.872, 844.444 689.387, 842.542 690.965 C 841.496 691.834, 841 691.884, 841 691.122 C 841 689.245, 839.508 689.844, 835.697 693.250 M 966 713.954 C 960.037 715.188, 955.334 717.666, 951.304 721.696 C 940.417 732.583, 939.909 746.542, 948.600 796 C 957.099 844.355, 970.759 878.380, 991.848 903.722 C 998.085 911.216, 1009.023 921.705, 1014.121 925.080 C 1027.096 933.670, 1055.350 932.365, 1071.088 922.450 C 1082.903 915.006, 1093.284 902.472, 1100.119 887.399 C 1108.586 868.725, 1110.758 845.440, 1105.547 829.205 C 1101.507 816.617, 1084.840 786.614, 1073.214 771 C 1057.813 750.316, 1039.828 734.194, 1022.500 725.540 C 1002.932 715.768, 979.980 711.061, 966 713.954 M 858.707 755.052 C 853.042 755.991, 846.085 760.230, 840.414 766.199 C 826.842 780.483, 818.568 795.932, 813.593 816.273 C 811.161 826.219, 810.693 829.464, 809.471 844.887 C 808.345 859.085, 812.353 886.345, 820.054 916.869 C 824.894 936.052, 831.498 947.664, 844.441 959.752 C 860.573 974.817, 882.067 983, 905.507 983 C 930.319 983, 954.148 967.533, 960.185 947.509 C 962.226 940.738, 962.953 927.286, 961.968 914.500 C 960.021 889.235, 954.030 868.978, 940.560 842.120 C 927.138 815.356, 898.713 773.079, 887.512 763.219 C 879.119 755.831, 869.854 753.204, 858.707 755.052 M 1133.353 768.756 C 1133.619 769.715, 1134.138 773.200, 1134.506 776.500 C 1135.296 783.572, 1137.451 793.546, 1139.668 800.388 L 1141.252 805.276 1149.376 804.638 C 1153.844 804.287, 1161.325 803.080, 1166 801.956 C 1172.994 800.275, 1175.164 799.265, 1178.250 796.254 C 1180.313 794.241, 1182 792.284, 1182 791.905 C 1182 791.526, 1179.905 788.886, 1177.345 786.039 C 1173.786 782.080, 1170.184 779.605, 1162.047 775.523 C 1150.520 769.742, 1146.130 768.274, 1138.087 767.508 C 1133.478 767.069, 1132.925 767.215, 1133.353 768.756 M 1168.357 815.082 C 1154.283 820.495, 1147.630 832.069, 1144.559 856.487 C 1139.033 900.415, 1140.212 948.024, 1147.547 977.131 C 1153.161 999.406, 1165.436 1024.621, 1176.777 1037.175 C 1180.919 1041.759, 1189.642 1047.149, 1196.500 1049.361 C 1203.044 1051.471, 1220.875 1052.932, 1228.616 1051.992 C 1246.430 1049.829, 1261.366 1040.348, 1276.184 1021.797 C 1287.906 1007.121, 1293.170 996.277, 1296.536 979.872 C 1299.962 963.174, 1297.852 949.861, 1286.139 914.272 C 1274.138 877.810, 1258.456 853.377, 1235 834.599 C 1213.136 817.095, 1184.744 808.780, 1168.357 815.082 M 756.555 918.057 C 754.503 920.913, 751.202 927.984, 748.970 934.307 C 745.676 943.634, 745.016 946.792, 745.009 953.250 L 745 961 750.540 961 C 756.823 961, 760.192 959.544, 772.730 951.410 L 780.959 946.071 778.911 941.293 C 775.677 933.748, 762.522 913, 760.972 913 C 760.541 913, 758.553 915.275, 756.555 918.057 M 772.423 971.340 C 758.299 974.945, 747.158 990.171, 739.625 1016.164 C 732.658 1040.208, 733.988 1067.061, 743.570 1095.756 C 748.127 1109.403, 759.224 1134.369, 767.397 1149.363 C 778.041 1168.890, 797.371 1183.472, 821.500 1190.177 C 828.346 1192.080, 832.025 1192.404, 847 1192.423 C 862.761 1192.443, 865.196 1192.211, 871.500 1190.091 C 882.028 1186.552, 890.693 1181.318, 898.068 1174.042 C 909.531 1162.733, 914 1153.043, 914 1139.499 C 914 1113.176, 896.223 1072.017, 872.538 1043.500 C 856.390 1024.058, 829.035 997.024, 811 982.685 C 797.365 971.843, 784.860 968.166, 772.423 971.340 M 1033.500 978.955 C 1007.922 982.398, 978.055 1000.611, 964.466 1021.051 C 957.979 1030.809, 954.402 1040.298, 950.952 1056.908 C 947.719 1072.472, 928.427 1132.020, 921.147 1148.905 C 918.988 1153.914, 912.719 1166.447, 907.218 1176.756 C 895.506 1198.703, 888.842 1213.182, 881.564 1232.500 C 874.247 1251.919, 872.533 1260.899, 873.308 1275.736 C 874.624 1300.901, 884.657 1322.131, 905.489 1343.835 C 924.715 1363.866, 943.525 1374.368, 967.500 1378.458 C 1010.385 1385.774, 1054.843 1364.196, 1075.869 1325.862 C 1080.211 1317.944, 1086.015 1303.228, 1085.980 1300.221 C 1085.969 1299.275, 1084.635 1302.260, 1083.014 1306.856 C 1069.333 1345.650, 1033.054 1372.469, 993.147 1373.288 L 982.793 1373.500 979.513 1369.718 C 970.852 1359.733, 961.556 1339.604, 957.937 1323 C 954.880 1308.975, 954.557 1280.496, 957.290 1266.018 C 963.422 1233.535, 987.305 1178.680, 1013.434 1137.064 C 1022.449 1122.706, 1040.328 1097.721, 1046.644 1090.656 C 1054.905 1081.415, 1064.807 1074.871, 1076.201 1071.124 C 1090.971 1066.266, 1100.025 1064.737, 1114 1064.740 C 1132.626 1064.743, 1139.086 1066.406, 1165.500 1077.994 C 1172.650 1081.130, 1180.585 1084.481, 1183.133 1085.439 C 1192.780 1089.069, 1197 1095.101, 1197 1105.261 C 1197 1107.118, 1197.709 1111.024, 1198.575 1113.942 C 1202.816 1128.221, 1219.965 1136.868, 1247.392 1138.557 L 1259.107 1139.278 1256.613 1141.889 C 1255.241 1143.325, 1253.567 1146.567, 1252.894 1149.093 C 1251.784 1153.255, 1251.880 1154.121, 1253.920 1158.336 C 1256.600 1163.871, 1261.075 1167.410, 1264.554 1166.745 C 1265.899 1166.488, 1267 1166.450, 1267 1166.661 C 1267 1166.872, 1265.216 1170.522, 1263.035 1174.772 C 1254.529 1191.348, 1246.583 1196.175, 1218.415 1201.881 C 1200.049 1205.600, 1187.621 1206.989, 1172.289 1207.036 C 1165.805 1207.055, 1158.025 1207.672, 1155 1208.407 C 1136.459 1212.911, 1120.735 1228.202, 1114.800 1247.500 C 1112.994 1253.372, 1112.610 1257.354, 1112.418 1272.210 C 1112.179 1290.727, 1111.656 1295.889, 1109.361 1302.393 C 1108.601 1304.548, 1108.148 1306.481, 1108.354 1306.687 C 1108.560 1306.894, 1112.212 1305.003, 1116.468 1302.487 C 1128.020 1295.657, 1146.965 1286.358, 1156.271 1282.950 C 1176.187 1275.655, 1192.163 1273.083, 1218 1273.014 C 1238.666 1272.958, 1250.238 1271.533, 1263 1267.470 C 1304.541 1254.245, 1332.579 1216.678, 1334.719 1171.378 C 1336.025 1143.740, 1327.602 1120.757, 1309.477 1102.505 C 1292.309 1085.216, 1273.488 1077.708, 1230.500 1070.999 C 1191.116 1064.852, 1167.187 1055.762, 1143.500 1037.949 C 1134.370 1031.083, 1126.130 1023.113, 1112.848 1008.300 C 1108.804 1003.790, 1103.021 998.239, 1099.997 995.964 C 1093.918 991.390, 1082.711 985.427, 1076.512 983.467 C 1073.150 982.403, 1072.905 982.163, 1075 981.984 C 1076.524 981.854, 1074.768 981.067, 1070.500 979.967 C 1063.213 978.089, 1043.862 977.560, 1033.500 978.955 M 1082.377 1077.970 C 1078.503 1079.905, 1074.750 1082.890, 1071.597 1086.541 C 1068.937 1089.622, 1062.877 1095.210, 1058.130 1098.958 C 1048.528 1106.540, 1044.626 1110.954, 1040.381 1119.035 C 1037.806 1123.936, 1037.509 1125.480, 1037.505 1134 C 1037.500 1142.916, 1037.710 1143.886, 1040.906 1149.781 C 1044.615 1156.622, 1055.862 1168, 1058.914 1168 C 1059.927 1168, 1061.355 1167.277, 1062.089 1166.393 C 1063.229 1165.019, 1062.884 1163.803, 1059.711 1158 C 1055.681 1150.632, 1055.182 1147.923, 1057.500 1146 C 1059.667 1144.202, 1061.021 1145.625, 1068.278 1157.319 C 1075.693 1169.270, 1081.159 1175.457, 1093.307 1185.649 C 1103.369 1194.091, 1107 1196, 1113 1196 C 1118.546 1196, 1123.115 1193.908, 1131.726 1187.427 C 1144.406 1177.883, 1150 1167.831, 1150 1154.588 C 1150 1145.623, 1148.803 1142.095, 1141.079 1128.293 C 1133.558 1114.856, 1128.665 1102.826, 1126.546 1092.571 C 1124.630 1083.293, 1124.267 1082.534, 1122.460 1084.033 C 1120.036 1086.045, 1119.625 1093.602, 1121.473 1102.157 C 1123.538 1111.715, 1126.565 1119.414, 1133.008 1131.500 C 1138.952 1142.650, 1140.232 1148.292, 1138.921 1157.568 C 1137.792 1165.565, 1134.360 1172.858, 1129.149 1178.335 C 1122.057 1185.788, 1115.168 1187.632, 1107.500 1184.129 C 1102.639 1181.908, 1101.609 1180.919, 1081.541 1159.216 C 1072.764 1149.723, 1064.567 1141.291, 1063.326 1140.478 C 1060 1138.299, 1053.693 1138.577, 1051.500 1141 C 1050.505 1142.100, 1049.310 1143, 1048.845 1143 C 1048.380 1143, 1048.010 1138.162, 1048.022 1132.250 C 1048.053 1116.979, 1048.635 1115.972, 1065.612 1101.820 C 1081.608 1088.486, 1092.889 1076.555, 1090.404 1075.601 C 1088.365 1074.819, 1089.138 1074.591, 1082.377 1077.970 M 1177.857 1112.857 C 1171.266 1119.448, 1171.246 1122.341, 1177.750 1127.916 C 1183.459 1132.809, 1187.128 1133.261, 1189.668 1129.383 C 1191.291 1126.908, 1191.286 1126.383, 1189.587 1119.633 C 1187.681 1112.063, 1185.672 1108, 1183.834 1108 C 1183.218 1108, 1180.529 1110.186, 1177.857 1112.857 M 1261.261 1145.607 C 1258.685 1151.558, 1259.539 1155.009, 1264.712 1159.541 L 1268.500 1162.860 1270.224 1159.180 C 1271.172 1157.156, 1271.959 1154.690, 1271.974 1153.700 C 1272.012 1151.091, 1269.615 1146.915, 1266.237 1143.704 L 1263.295 1140.908 1261.261 1145.607" stroke="none" fill="#fbfbfb" fill-rule="evenodd"/></svg>